<?xml version="1.0" encoding="UTF-8"?>
<svg version="1.1" xmlns="http://www.w3.org/2000/svg" width="600" height="200">
<path d="M0 0 C198 0 396 0 600 0 C600 66 600 132 600 200 C402 200 204 200 0 200 C0 134 0 68 0 0 Z " fill="#FEFEFE" transform="translate(0,0)"/>
<path d="M0 0 C31.49541284 0 31.49541284 0 42 10 C48.34557968 18.05276609 49.76673652 25.90463588 49 36 C47.83212526 44.60672908 43.49112902 50.37634905 37 56 C24.91481363 63.8061352 15.39290028 62 0 62 C0 41.54 0 21.08 0 0 Z " fill="#040404" transform="translate(174,66)"/>
<path d="M0 0 C5.26780465 1.14497318 9.84874389 4.47033314 14.40478516 7.23193359 C15.55509255 7.91578741 16.70614286 8.59839302 17.85791016 9.27978516 C20.19033899 10.66302516 22.51715009 12.05506777 24.83984375 13.45458984 C27.98067188 15.33990405 31.13579901 17.19752157 34.29931641 19.04443359 C36.1057553 20.10616951 37.91177141 21.16862519 39.71728516 22.23193359 C40.97061646 22.96428223 40.97061646 22.96428223 42.24926758 23.71142578 C43.01215088 24.16678711 43.77503418 24.62214844 44.56103516 25.09130859 C45.22296875 25.48286133 45.88490234 25.87441406 46.56689453 26.27783203 C48.21728516 27.48193359 48.21728516 27.48193359 50.21728516 30.48193359 C50.85113969 34.55671276 50.52915921 36.04936181 48.09008789 39.43237305 C45.38071983 42.53190258 42.4183711 44.44792777 38.81494141 46.46240234 C38.21475693 46.80193436 37.61457245 47.14146637 36.99620056 47.49128723 C35.09684732 48.56203487 33.18863672 49.61573206 31.27978516 50.66943359 C30.00379157 51.38646061 28.7283952 52.10455149 27.45361328 52.82373047 C9.96819523 62.64762906 9.96819523 62.64762906 2.21728516 60.48193359 C-0.84521484 58.41943359 -0.84521484 58.41943359 -2.78271484 56.48193359 C-1.27335452 52.14537448 1.49214645 50.86111456 5.39697266 48.69677734 C6.00614532 48.35441544 6.61531799 48.01205353 7.24295044 47.65931702 C9.18716132 46.56900838 11.13917964 45.49371384 13.09228516 44.41943359 C15.03659376 43.3388606 16.979125 42.25521516 18.92019653 41.1688385 C20.68515774 40.18277961 22.45477106 39.20506134 24.22460938 38.2277832 C26.71410618 36.77547519 28.96680715 35.27385349 31.21728516 33.48193359 C30.41508545 33.0380127 29.61288574 32.5940918 28.78637695 32.13671875 C25.80582459 30.48654262 22.8259164 28.83521491 19.84643555 27.18310547 C18.55762896 26.46877636 17.26856854 25.75490503 15.97924805 25.04150391 C14.12432745 24.01504303 12.27033083 22.98693055 10.41650391 21.95849609 C8.74334106 21.03157959 8.74334106 21.03157959 7.03637695 20.0859375 C5.05331719 18.95761823 3.11567868 17.74752927 1.21728516 16.48193359 C0.84603516 17.74005859 0.47478516 18.99818359 0.09228516 20.29443359 C-1.86365622 26.80518291 -3.90625015 33.28726881 -5.97412109 39.76318359 C-7.35144097 44.08589698 -8.67932782 48.42210356 -9.99755859 52.76318359 C-10.77980839 55.29452703 -11.56235949 57.82577737 -12.34521484 60.35693359 C-12.7088916 61.57558105 -13.07256836 62.79422852 -13.44726562 64.04980469 C-15.71194688 71.29861188 -17.40727611 75.41912648 -23.65771484 79.79443359 C-26.71933268 80.78495701 -29.59235219 80.60463985 -32.78271484 80.48193359 C-32.25285404 73.19634748 -30.01266694 66.8827272 -27.53271484 60.04443359 C-24.84844081 52.48658401 -22.21411126 44.95156201 -20.03271484 37.23193359 C-18.24822305 30.92155681 -16.17615588 24.79612211 -13.89990234 18.64599609 C-12.87952266 15.75610959 -12.06039746 12.88161794 -11.28271484 9.91943359 C-9.52573825 3.99451808 -6.71613332 -0.20489898 0 0 Z " fill="#070707" transform="translate(108.78271484375,64.51806640625)"/>
<path d="M0 0 C-0.62225436 5.63027744 -2.03714843 10.69387614 -3.8125 16.0625 C-6.04421096 22.9486743 -8.13807484 29.83960774 -10.04296875 36.82421875 C-10.93819449 39.79490661 -12.01363566 42.65275625 -13.12329102 45.5480957 C-14.21193522 48.59272219 -15.14776732 51.6713353 -16.0859375 54.765625 C-16.64667969 56.59480469 -16.64667969 56.59480469 -17.21875 58.4609375 C-17.99328764 60.99911828 -18.75621407 63.54086971 -19.5078125 66.0859375 C-19.88421875 67.30023438 -20.260625 68.51453125 -20.6484375 69.765625 C-21.14609619 71.41739746 -21.14609619 71.41739746 -21.65380859 73.10253906 C-23.24831616 76.53446068 -24.82064102 77.98678511 -28 80 C-34.51933288 80.86129398 -38.10590477 79.38035961 -43.5 75.875 C-44.97284952 74.96045145 -46.44688308 74.04780798 -47.921875 73.13671875 C-48.72173828 72.6370459 -49.52160156 72.13737305 -50.34570312 71.62255859 C-53.28871092 69.82351244 -56.26998093 68.10444634 -59.265625 66.39453125 C-60.8753418 65.47341553 -60.8753418 65.47341553 -62.51757812 64.53369141 C-64.63887321 63.32211789 -66.76250246 62.11462019 -68.88867188 60.91162109 C-80.99508753 53.93312016 -80.99508753 53.93312016 -82.76953125 48.75390625 C-82.83172118 45.58222007 -82.87948431 42.95951018 -80.65844727 40.53637695 C-74.62149052 36.28210273 -68.36678479 32.41835483 -61.98291016 28.71142578 C-60.74225387 27.98594346 -59.50717369 27.25084191 -58.27783203 26.50634766 C-44.48189181 18.15395311 -44.48189181 18.15395311 -36 20 C-33.42423572 21.07312682 -32.10164783 22.06427173 -30 24 C-30 24.99 -30 25.98 -30 27 C-33.57451549 29.0631792 -37.14914562 31.12615964 -40.72387695 33.18896484 C-41.93712377 33.88910701 -43.15034056 34.58930122 -44.36352539 35.28955078 C-45.54210824 35.96981968 -46.72076735 36.64995648 -47.89950562 37.32995605 C-49.5965227 38.30943399 -51.29265497 39.29044442 -52.98876953 40.27148438 C-55.40600778 41.65903479 -57.83640394 43.01445646 -60.27734375 44.359375 C-63.0822738 45.71848566 -63.0822738 45.71848566 -64 48 C-63.28739014 48.26731934 -62.57478027 48.53463867 -61.84057617 48.81005859 C-58.92580445 50.03108115 -56.28638889 51.45876463 -53.55078125 53.0390625 C-52.53822266 53.61914062 -51.52566406 54.19921875 -50.48242188 54.796875 C-48.35696551 56.02264651 -46.23197042 57.24921819 -44.10742188 58.4765625 C-43.09873047 59.0540625 -42.09003906 59.6315625 -41.05078125 60.2265625 C-40.12950439 60.75846191 -39.20822754 61.29036133 -38.2590332 61.83837891 C-36.12692776 63.15243196 -36.12692776 63.15243196 -34 63 C-31.64616552 56.91159014 -29.60350933 50.77575753 -27.8125 44.5 C-25.51547529 36.55925517 -23.04591158 28.67680669 -20.5 20.8125 C-20.13237549 19.64203125 -19.76475098 18.4715625 -19.38598633 17.265625 C-15.15059412 4.34136079 -15.15059412 4.34136079 -8.5625 0.625 C-5.62973599 -0.0903083 -3.00779718 -0.13989754 0 0 Z " fill="#070707" transform="translate(99,52)"/>
<path d="M0 0 C5.93809779 2.45909775 8.90430889 6.85790401 11.859375 12.41015625 C13.92439586 18.60521883 13.45810027 23.81830427 10.671875 29.72265625 C8.0586385 34.47064932 5.33621238 37.03413548 0.609375 39.66015625 C-6.70139711 41.65400319 -11.08732527 40.43299899 -18.140625 37.41015625 C-18.470625 44.67015625 -18.800625 51.93015625 -19.140625 59.41015625 C-23.760625 59.41015625 -28.380625 59.41015625 -33.140625 59.41015625 C-33.140625 39.94015625 -33.140625 20.47015625 -33.140625 0.41015625 C-28.520625 0.41015625 -23.900625 0.41015625 -19.140625 0.41015625 C-18.810625 1.40015625 -18.480625 2.39015625 -18.140625 3.41015625 C-17.17125 2.75015625 -16.201875 2.09015625 -15.203125 1.41015625 C-10.15964272 -1.43697085 -5.53247885 -1.52446041 0 0 Z " fill="#787878" transform="translate(503.140625,88.58984375)"/>
<path d="M0 0 C1.79296875 1.16796875 1.79296875 1.16796875 2.79296875 4.16796875 C1.796875 6.6484375 1.796875 6.6484375 0.35546875 9.35546875 C-0.11761719 10.25652344 -0.59070313 11.15757813 -1.078125 12.0859375 C-1.45066406 12.77300781 -1.82320313 13.46007812 -2.20703125 14.16796875 C-3.34140625 13.67296875 -4.47578125 13.17796875 -5.64453125 12.66796875 C-10.17969242 10.9541467 -14.3989293 10.64925236 -19.20703125 11.16796875 C-20.19703125 11.66296875 -20.19703125 11.66296875 -21.20703125 12.16796875 C-21.87857809 14.45138618 -21.87857809 14.45138618 -21.20703125 17.16796875 C-17.44831605 20.50562569 -12.65314907 22.43020144 -8.14453125 24.54296875 C-2.82464454 27.12902479 2.09247763 30.7669865 4.79296875 36.16796875 C5.51802496 43.22835214 5.21717158 49.39192617 0.79296875 55.16796875 C-7.0324556 61.63244974 -15.45165622 61.88043996 -25.20703125 61.16796875 C-31.13837111 59.97648259 -36.09506757 57.32215911 -41.20703125 54.16796875 C-40.72378306 49.01332141 -38.02092364 45.35246556 -35.20703125 41.16796875 C-34.44519531 41.60109375 -33.68335938 42.03421875 -32.8984375 42.48046875 C-26.26588809 46.05757405 -21.74765245 48.00581555 -14.20703125 47.16796875 C-12.72203125 46.67296875 -12.72203125 46.67296875 -11.20703125 46.16796875 C-10.78893924 43.33644902 -10.78893924 43.33644902 -11.20703125 40.16796875 C-14.51752615 37.04372674 -17.94638556 35.24409801 -22.08203125 33.41796875 C-27.78276431 30.65546802 -31.71307046 27.47110018 -35.20703125 22.16796875 C-36.96989987 16.87936288 -37.11823248 12.02681927 -34.64453125 6.98046875 C-25.06474746 -4.07312793 -13.65784729 -5.81516826 0 0 Z " fill="#757575" transform="translate(361.20703125,67.83203125)"/>
<path d="M0 0 C5.155984 2.89871857 7.32303927 5.56174032 9.6875 11 C9.6875 14.3 9.6875 17.6 9.6875 21 C0.7775 21 -8.1325 21 -17.3125 21 C-15.85961014 25.5841963 -15.85961014 25.5841963 -14.3125 27 C-8.64434682 27.54582216 -3.94010622 27.70208498 0.6875 24 C3.6575 25.65 6.6275 27.3 9.6875 29 C5.60294204 34.4120393 2.47103465 37.72950522 -4.3125 39 C-11.72612686 39.79931287 -18.20674233 39.6182761 -24.3125 35 C-28.1702275 31.30999979 -31.01172444 27.39354026 -31.68359375 22.046875 C-31.81027108 15.75771811 -31.77363549 10.82604882 -27.9453125 5.65234375 C-20.23882543 -2.14632617 -10.10087647 -4.50607962 0 0 Z " fill="#080808" transform="translate(258.3125,90)"/>
<path d="M0 0 C5.28 0 10.56 0 16 0 C17.33783337 2.95637285 18.67043139 5.91491314 20 8.875 C20.3815625 9.71675781 20.763125 10.55851562 21.15625 11.42578125 C21.5171875 12.23144531 21.878125 13.03710938 22.25 13.8671875 C22.58515625 14.61081543 22.9203125 15.35444336 23.265625 16.12060547 C24 18 24 18 24 20 C24.66 20 25.32 20 26 20 C26.391875 18.741875 26.78375 17.48375 27.1875 16.1875 C29.04207953 10.58809643 31.4997284 5.33841775 34 0 C39.28 0 44.56 0 50 0 C48.44578187 3.88554533 46.80408673 7.44814317 44.8828125 11.1484375 C43.97208984 12.90414062 43.97208984 12.90414062 43.04296875 14.6953125 C42.72763184 15.30020508 42.41229492 15.90509766 42.08740234 16.52832031 C41.13221664 18.36115255 40.1810606 20.19603175 39.23046875 22.03125 C36.26066656 27.75192853 33.26353707 33.4405072 30 39 C26.7 39 23.4 39 20 39 C17.46987777 34.25116106 14.94312398 29.50055119 12.41943359 24.74829102 C11.56097584 23.13289438 10.70161023 21.51797986 9.84130859 19.90356445 C8.60273325 17.57890887 7.36746579 15.25252174 6.1328125 12.92578125 C5.74940704 12.20787918 5.36600159 11.48997711 4.97097778 10.75032043 C4.43064407 9.72982857 4.43064407 9.72982857 3.87939453 8.6887207 C3.56406769 8.09581741 3.24874084 7.50291412 2.92385864 6.89204407 C1.828886 4.64956194 0.92681815 2.31704538 0 0 Z " fill="#060606" transform="translate(269,89)"/>
<path d="M0 0 C4.62 0 9.24 0 14 0 C14 4.62 14 9.24 14 14 C16.64 14 19.28 14 22 14 C22 17.63 22 21.26 22 25 C19.36 25 16.72 25 14 25 C14.495 32.92 14.495 32.92 15 41 C16.65 41 18.3 41 20 41 C20.50615298 42.26839526 21.00469099 43.53983102 21.5 44.8125 C21.7784375 45.52019531 22.056875 46.22789063 22.34375 46.95703125 C23 49 23 49 23 52 C18.21425841 54.79729966 13.39874293 54.76566832 8 54 C4.67215348 52.41156044 2.65626673 50.18262401 0.85546875 46.9375 C-0.385323 42.67688174 -0.21052167 38.59844468 -0.125 34.1875 C-0.11597656 33.30384766 -0.10695313 32.42019531 -0.09765625 31.50976562 C-0.07419637 29.33972641 -0.03832865 27.16982753 0 25 C-1.65 25 -3.3 25 -5 25 C-5 21.37 -5 17.74 -5 14 C-3.35 14 -1.7 14 0 14 C0 9.38 0 4.76 0 0 Z " fill="#787878" transform="translate(524,75)"/>
<path d="M0 0 C0.9075 0.495 1.815 0.99 2.75 1.5 C1.65931332 5.27545388 0.8416909 7.97043472 -2.25 10.5 C-3.24 10.17 -4.23 9.84 -5.25 9.5 C-6.64439664 9.43334624 -8.04169875 9.41461801 -9.4375 9.4375 C-10.695625 9.458125 -11.95375 9.47875 -13.25 9.5 C-13.25 10.16 -13.25 10.82 -13.25 11.5 C-12.03763672 11.93699219 -12.03763672 11.93699219 -10.80078125 12.3828125 C0.59554307 16.75438202 0.59554307 16.75438202 3.75 22.5 C4.50360955 26.3283365 4.08999604 29.5650109 2.75 33.25 C-1.10132967 37.58274588 -4.89822709 39.258655 -10.67578125 39.8515625 C-17.06064886 39.999891 -21.68995096 39.92466789 -27.25 36.5 C-27.91 35.51 -28.57 34.52 -29.25 33.5 C-27.6 30.86 -25.95 28.22 -24.25 25.5 C-23.404375 25.995 -22.55875 26.49 -21.6875 27 C-17.91203168 28.64747708 -15.32182452 28.74430947 -11.25 28.5 C-11.25 27.51 -11.25 26.52 -11.25 25.5 C-12.08144531 25.11328125 -12.91289063 24.7265625 -13.76953125 24.328125 C-14.85621094 23.80734375 -15.94289063 23.2865625 -17.0625 22.75 C-18.14144531 22.23953125 -19.22039063 21.7290625 -20.33203125 21.203125 C-23.23947172 19.50614502 -24.64289827 18.42250349 -26.25 15.5 C-27.1217325 11.10992373 -26.82766566 7.52202385 -24.625 3.625 C-17.78920287 -2.49123954 -8.50974688 -3.63960661 0 0 Z " fill="#767676" transform="translate(578.25,89.5)"/>
<path d="M0 0 C1.9140625 0.82421875 1.9140625 0.82421875 4.7265625 2.32421875 C4.16110413 6.28242734 2.91753902 8.99012405 0.7265625 12.32421875 C-0.2634375 11.99421875 -1.2534375 11.66421875 -2.2734375 11.32421875 C-7.24507281 10.85948417 -7.24507281 10.85948417 -11.6484375 12.88671875 C-13.80882001 16.12729251 -14.20531196 18.44106278 -14.2734375 22.32421875 C-12.92781351 25.27177607 -12.18789206 26.86699147 -9.2734375 28.32421875 C-7.64717647 28.24205574 -6.02213108 28.13457984 -4.3984375 28.01171875 C-1.69921875 27.9765625 -1.69921875 27.9765625 0.7265625 28.32421875 C3.41163575 31.07173557 4.68126638 32.6935583 4.7890625 36.57421875 C3.2444379 39.11830632 1.51837611 39.40673981 -1.2734375 40.32421875 C-9.78126502 41.29044695 -16.25417434 39.88482138 -23.0234375 34.51171875 C-27.52900844 30.37064344 -29.4108718 26.58181159 -29.7109375 20.44921875 C-29.51888969 15.33306518 -28.42380545 11.40219505 -25.2734375 7.32421875 C-17.88574921 0.51180127 -10.09625668 -3.00112097 0 0 Z " fill="#767676" transform="translate(399.2734375,88.67578125)"/>
<path d="M0 0 C0.99 0.66 1.98 1.32 3 2 C2.39301257 6.12751449 0.96189209 9.3321148 -1 13 C-1.75925781 12.96519531 -2.51851563 12.93039063 -3.30078125 12.89453125 C-4.29464844 12.86746094 -5.28851563 12.84039062 -6.3125 12.8125 C-7.29863281 12.77769531 -8.28476562 12.74289063 -9.30078125 12.70703125 C-12.01762434 12.76392116 -12.01762434 12.76392116 -13.79296875 14.38671875 C-15.99231258 17.3262948 -16.17073069 19.38673418 -16.31640625 23.0078125 C-16.35830078 23.99394531 -16.40019531 24.98007813 -16.44335938 25.99609375 C-16.48267578 27.02863281 -16.52199219 28.06117187 -16.5625 29.125 C-16.60568359 30.16527344 -16.64886719 31.20554687 -16.69335938 32.27734375 C-16.79962768 34.8513983 -16.90033527 37.42568131 -17 40 C-21.29 40 -25.58 40 -30 40 C-30 27.13 -30 14.26 -30 1 C-25.38 1 -20.76 1 -16 1 C-16 2.32 -16 3.64 -16 5 C-15.5153125 4.6390625 -15.030625 4.278125 -14.53125 3.90625 C-9.40450694 0.35696634 -6.22867077 -0.73899484 0 0 Z " fill="#757575" transform="translate(440,88)"/>
<path d="M0 0 C9.3 0 9.3 0 13 3 C18.62988457 8.98075556 19.30020262 12.69160214 19.2109375 20.796875 C18.85044221 26.27106281 17.00256577 29.2778959 13 32.8125 C8.10950085 36.37848897 6.51619119 36 0 36 C0 24.12 0 12.24 0 0 Z " fill="#FDFDFD" transform="translate(188,79)"/>
<path d="M0 0 C4.62 0 9.24 0 14 0 C14 12.87 14 25.74 14 39 C9.38 39 4.76 39 0 39 C0 26.13 0 13.26 0 0 Z " fill="#7A7A7A" transform="translate(447,89)"/>
<path d="M0 0 C2.5625 1.4375 2.5625 1.4375 4 4 C4.5412803 7.10523961 4.58150746 9.8986269 4 13 C2.12379387 15.50160818 0.76108697 16.61945652 -2 18 C-5.93429172 18.52457223 -7.54458957 18.30690703 -10.875 16.0625 C-13.37697772 12.45670859 -13.69273195 10.39097926 -13.40625 6.09375 C-13 4 -13 4 -11.5625 1.4375 C-7.72617511 -0.7145847 -4.29295189 -0.74831272 0 0 Z " fill="#FBFBFB" transform="translate(497,100)"/>
<path d="M0 0 C2.5 1.5625 2.5 1.5625 4 4 C4.56288002 7.94016013 4.60396028 10.05782196 2.4375 13.4375 C-0.94217804 15.60396028 -3.05983987 15.56288002 -7 15 C-9.4375 13.5 -9.4375 13.5 -11 11 C-11.6227188 7.48305406 -11.63278358 4.26556715 -10 1 C-6.73443285 -0.63278358 -3.51694594 -0.6227188 0 0 Z " fill="#767676" transform="translate(458,66)"/>
<path d="M0 0 C3.70543535 0.31943408 5.1286282 0.61641846 7.625 3.3125 C7.625 4.3025 7.625 5.2925 7.625 6.3125 C3.005 6.3125 -1.615 6.3125 -6.375 6.3125 C-4.91054502 0.45468009 -4.91054502 0.45468009 0 0 Z " fill="#F6F6F6" transform="translate(247.375,96.6875)"/>
</svg>
